<?xml version="1.0" ?>
<!-- Uploaded to: SVG Repo, www.svgrepo.com, Generator: SVG Repo Mixer Tools -->
<svg width="800px" height="800px" viewBox="0 0 20 20" version="1.1" xmlns="http://www.w3.org/2000/svg">
<g id="layer1">
<path d="M 16.074219 0.1484375 L 15.853516 0.15429688 L 15.640625 0.20898438 L 15.443359 0.30664062 L 12.820312 2.0253906 L 12.640625 2.1738281 L 12.501953 2.3613281 L 12.132812 3 L 12.060547 3.1582031 L 12.013672 3.3261719 L 12 3.5 L 12 5.1777344 L 11.810547 5.4257812 L 11.666016 5.7050781 L 11.564453 6.0019531 L 10.957031 6.0019531 L 10.876953 5.65625 L 10.757812 5.3222656 L 10.601562 5.0019531 L 10.472656 4.8320312 L 10.316406 4.6894531 L 10.126953 4.5859375 L 9.9238281 4.5214844 L 9.7128906 4.5039062 L 9.4257812 4.5117188 L 9.1953125 4.546875 L 8.984375 4.6347656 L 8.7949219 4.7675781 L 8.6445312 4.9414062 L 8.4511719 5.1796875 L 8.2246094 5.3828125 L 7.9707031 5.5507812 L 7.6933594 5.6796875 L 7.4003906 5.7636719 L 6.515625 5.9746094 L 5.6464844 6.25 L 4.7988281 6.5839844 L 3.9785156 6.9785156 L 3.1855469 7.4296875 L 2.4296875 7.9316406 L 1.7070312 8.4882812 L 1.0273438 9.0917969 L 0.39257812 9.7441406 L 0.21484375 9.9804688 L 0.087890625 10.244141 L 0.017578125 10.53125 L 0 10.824219 L 0.04296875 11.115234 L 0.14257812 11.392578 L 0.29296875 11.644531 L 0.49023438 11.863281 L 0.72460938 12.037109 L 0.99023438 12.164062 L 1.2734375 12.238281 L 1.5703125 12.251953 L 1.859375 12.210938 L 2.1367188 12.113281 L 2.3886719 11.960938 L 2.609375 11.763672 L 3.140625 11.224609 L 3.7109375 10.722656 L 4.3203125 10.269531 L 4.9589844 9.8632812 L 5.6289062 9.5039062 L 6.3242188 9.1992188 L 7.0410156 8.9472656 L 7.7734375 8.7519531 L 8.5195312 8.609375 L 9.2753906 8.5253906 L 10.03125 8.5 L 10.255859 8.4765625 L 10.466797 8.4003906 L 10.658203 8.28125 L 10.816406 8.125 L 10.933594 7.9335938 L 11.009766 7.7226562 L 11.035156 7.4980469 L 11.767578 7.4980469 L 11.966797 7.7851562 L 12.214844 8.0332031 L 12.498047 8.2324219 L 12.498047 8.9648438 L 12.275391 8.9902344 L 12.0625 9.0625 L 11.875 9.1816406 L 11.714844 9.3417969 L 11.595703 9.5332031 L 11.523438 9.7441406 L 11.5 9.96875 L 11.474609 10.724609 L 11.390625 11.480469 L 11.248047 12.226562 L 11.050781 12.958984 L 10.800781 13.673828 L 10.494141 14.371094 L 10.136719 15.037109 L 9.7304688 15.679688 L 9.2734375 16.289062 L 8.7753906 16.859375 L 8.2363281 17.390625 L 8.0390625 17.609375 L 7.8867188 17.861328 L 7.7890625 18.140625 L 7.7480469 18.429688 L 7.7617188 18.722656 L 7.8359375 19.009766 L 7.9589844 19.275391 L 8.1367188 19.509766 L 8.3535156 19.707031 L 8.6074219 19.857422 L 8.8847656 19.957031 L 9.1757812 19.998047 L 9.46875 19.982422 L 9.7539062 19.910156 L 10.019531 19.785156 L 10.255859 19.607422 L 10.904297 18.972656 L 11.511719 18.291016 L 12.066406 17.570312 L 12.570312 16.814453 L 13.021484 16.021484 L 13.416016 15.201172 L 13.75 14.353516 L 14.025391 13.484375 L 14.236328 12.599609 L 14.320312 12.306641 L 14.449219 12.029297 L 14.617188 11.773438 L 14.820312 11.546875 L 15.058594 11.355469 L 15.232422 11.205078 L 15.365234 11.015625 L 15.453125 10.800781 L 15.488281 10.574219 L 15.496094 10.287109 L 15.478516 10.076172 L 15.416016 9.8691406 L 15.310547 9.6835938 L 15.167969 9.5234375 L 14.994141 9.3984375 L 14.677734 9.2421875 L 14.34375 9.1210938 L 14 9.0429688 L 14 8.4355469 L 14.294922 8.3339844 L 14.574219 8.1894531 L 14.822266 8 L 16.5 8 L 16.673828 7.9863281 L 16.84375 7.9394531 L 17 7.8671875 L 17.638672 7.4960938 L 17.826172 7.3554688 L 17.974609 7.1796875 L 19.693359 4.5566406 L 19.791016 4.359375 L 19.845703 4.1464844 L 19.851562 3.9257812 L 19.808594 3.7089844 L 19.722656 3.5078125 L 19.720703 3.5078125 L 19.427734 3 L 17.974609 3.8398438 L 17.849609 4.1328125 L 17.675781 4.4042969 L 17.462891 4.6425781 L 17.214844 4.8457031 L 16.939453 5.0078125 L 16.636719 5.1210938 L 16.324219 5.1855469 L 16.001953 5.2011719 L 15.685547 5.1621094 L 15.197266 5.4414062 L 15.017578 5.1972656 L 14.802734 4.9824219 L 14.556641 4.8027344 L 14.837891 4.3144531 L 14.800781 3.9960938 L 14.814453 3.6757812 L 14.878906 3.3632812 L 14.992188 3.0605469 L 15.150391 2.7832031 L 15.353516 2.5371094 L 15.595703 2.3222656 L 15.865234 2.1503906 L 16.160156 2.0253906 L 17 0.57226562 L 16.492188 0.27929688 L 16.289062 0.18945312 L 16.074219 0.1484375 z M 14.308594 2.2460938 L 14.111328 2.5859375 L 13.960938 2.9453125 L 13.857422 3.3261719 L 13.804688 3.7148438 L 13.804688 4.1054688 L 13.691406 4.3027344 L 13.601562 4.5039062 L 13.560547 4.71875 L 13.566406 4.9355469 L 13.619141 5.1503906 L 13.716797 5.3457031 L 13.857422 5.515625 L 14.027344 5.6503906 L 14.216797 5.8046875 L 14.365234 5.9980469 L 14.460938 6.2226562 L 14.498047 6.4628906 L 14.478516 6.703125 L 14.398438 6.9355469 L 14.269531 7.1386719 L 14.091797 7.3066406 L 13.878906 7.4257812 L 13.644531 7.4902344 L 13.400391 7.4960938 L 13.162109 7.4414062 L 12.945312 7.3339844 L 12.761719 7.1738281 L 12.621094 6.9765625 L 12.53125 6.75 L 12.498047 6.5097656 L 12.527344 6.2675781 L 12.611328 6.0390625 L 12.748047 5.8378906 L 12.884766 5.640625 L 12.970703 5.4140625 L 13 5.1777344 L 13 3.5 L 13.369141 2.8613281 L 14.308594 2.2460938 z M 9.7324219 5.5019531 L 9.8789062 5.8183594 L 9.96875 6.1542969 L 10 6.5 L 10 7 L 10.009766 7.2519531 L 10.035156 7.5019531 L 9.2011719 7.5273438 L 8.3710938 7.6210938 L 7.5507812 7.7773438 L 6.7441406 7.9921875 L 5.9570312 8.2695312 L 5.1914062 8.6074219 L 4.4570312 8.9980469 L 3.7519531 9.4453125 L 3.0820312 9.9472656 L 2.4550781 10.496094 L 1.8691406 11.091797 L 1.7324219 11.195312 L 1.5664062 11.25 L 1.3925781 11.242188 L 1.2304688 11.175781 L 1.1035156 11.058594 L 1.0214844 10.904297 L 1.0019531 10.734375 L 1.0351562 10.5625 L 1.1289062 10.417969 L 1.71875 9.8164062 L 2.3457031 9.2558594 L 3.0117188 8.7421875 L 3.7109375 8.2792969 L 4.4433594 7.8632812 L 5.2011719 7.5019531 L 5.9804688 7.1933594 L 6.78125 6.9375 L 7.5996094 6.7402344 L 7.96875 6.6425781 L 8.3203125 6.4960938 L 8.6503906 6.3046875 L 8.9550781 6.0761719 L 9.2285156 5.8085938 L 9.4667969 5.5097656 L 9.7324219 5.5019531 z M 17.753906 5.6914062 L 17.138672 6.6308594 L 16.5 7 L 15.435547 7 L 15.490234 6.7011719 L 15.496094 6.3964844 L 15.697266 6.3085938 L 15.894531 6.1953125 L 16.285156 6.1933594 L 16.673828 6.140625 L 17.050781 6.0390625 L 17.414062 5.8886719 L 17.753906 5.6914062 z M 12.498047 9.9648438 L 12.748047 9.9902344 L 13 10 L 13.5 10 L 13.845703 10.029297 L 14.181641 10.119141 L 14.498047 10.267578 L 14.490234 10.533203 L 14.191406 10.769531 L 13.923828 11.041016 L 13.691406 11.345703 L 13.501953 11.679688 L 13.357422 12.03125 L 13.255859 12.400391 L 13.0625 13.21875 L 12.806641 14.019531 L 12.498047 14.798828 L 12.136719 15.556641 L 11.720703 16.289062 L 11.253906 16.988281 L 10.744141 17.654297 L 10.183594 18.28125 L 9.5820312 18.867188 L 9.4335938 18.960938 L 9.265625 18.998047 L 9.0957031 18.974609 L 8.9414062 18.894531 L 8.8222656 18.765625 L 8.7578125 18.607422 L 8.75 18.433594 L 8.8007812 18.267578 L 8.9082031 18.130859 L 9.5039062 17.544922 L 10.052734 16.914062 L 10.554688 16.248047 L 11.001953 15.542969 L 11.392578 14.804688 L 11.730469 14.042969 L 12.007812 13.255859 L 12.222656 12.449219 L 12.378906 11.626953 L 12.46875 10.796875 L 12.498047 9.9648438 z " style="fill:#222222; fill-opacity:1; stroke:none; stroke-width:0px;"/>
</g>
</svg>